<svg xmlns="http://www.w3.org/2000/svg" viewBox="0 0 718 416" width="718" height="416" font-family="system-ui, -apple-system, 'Segoe UI', sans-serif"><rect x="0" y="0" width="718" height="416" fill="#fcfcfb"></rect><text x="20" y="38" font-size="16" font-weight="600" fill="#0b0b0b">Did the session declare the index its query needed?</text><text x="20" y="56" font-size="12" fill="#52514e">Graded against EXPECTED.md, pre-registered before any session ran. Counts are raw; n differs per cell and</text><text x="20" y="72" font-size="12" fill="#52514e">every n is small. Rows 1-3 are the same harness with one variable changed at a time.</text><g transform="translate(20, 86)"><rect x="0" y="-10" width="12" height="12" rx="3" fill="#0ca30c"></rect><text x="17" y="0" font-size="11" fill="#52514e">Correct — exact tuple, right column order</text><rect x="270.1" y="-10" width="12" height="12" rx="3" fill="#fab219"></rect><text x="287.1" y="0" font-size="11" fill="#52514e">Partial — right columns, wrong shape</text><rect x="509.70000000000005" y="-10" width="12" height="12" rx="3" fill="#d03b3b"></rect><text x="526.7" y="0" font-size="11" fill="#52514e">None</text></g><svg width="678" height="272" overflow="visible" x="20" y="124"><text x="0" y="12" font-size="11" font-weight="600" fill="#0b0b0b">Indexed baseline</text><text x="0" y="25" font-size="9" fill="#898781">Task 15 · schema already had indexes</text><rect x="150" y="4" width="16" height="16" rx="4" fill="#0ca30c" stroke="#fcfcfb" stroke-width="1"></rect><rect x="168" y="4" width="16" height="16" rx="4" fill="#0ca30c" stroke="#fcfcfb" stroke-width="1"></rect><rect x="186" y="4" width="16" height="16" rx="4" fill="#0ca30c" stroke="#fcfcfb" stroke-width="1"></rect><rect x="204" y="4" width="16" height="16" rx="4" fill="#0ca30c" stroke="#fcfcfb" stroke-width="1"></rect><rect x="222" y="4" width="16" height="16" rx="4" fill="#0ca30c" stroke="#fcfcfb" stroke-width="1"></rect><rect x="240" y="4" width="16" height="16" rx="4" fill="#0ca30c" stroke="#fcfcfb" stroke-width="1"></rect><rect x="258" y="4" width="16" height="16" rx="4" fill="#0ca30c" stroke="#fcfcfb" stroke-width="1"></rect><rect x="276" y="4" width="16" height="16" rx="4" fill="#0ca30c" stroke="#fcfcfb" stroke-width="1"></rect><rect x="294" y="4" width="16" height="16" rx="4" fill="#0ca30c" stroke="#fcfcfb" stroke-width="1"></rect><rect x="312" y="4" width="16" height="16" rx="4" fill="#0ca30c" stroke="#fcfcfb" stroke-width="1"></rect><rect x="330" y="4" width="16" height="16" rx="4" fill="#fab219" stroke="#fcfcfb" stroke-width="1"></rect><rect x="348" y="4" width="16" height="16" rx="4" fill="#0ca30c" stroke="#fcfcfb" stroke-width="1"></rect><rect x="366" y="4" width="16" height="16" rx="4" fill="#0ca30c" stroke="#fcfcfb" stroke-width="1"></rect><rect x="384" y="4" width="16" height="16" rx="4" fill="#0ca30c" stroke="#fcfcfb" stroke-width="1"></rect><rect x="402" y="4" width="16" height="16" rx="4" fill="#fab219" stroke="#fcfcfb" stroke-width="1"></rect><rect x="420" y="4" width="16" height="16" rx="4" fill="#0ca30c" stroke="#fcfcfb" stroke-width="1"></rect><rect x="438" y="4" width="16" height="16" rx="4" fill="#0ca30c" stroke="#fcfcfb" stroke-width="1"></rect><rect x="456" y="4" width="16" height="16" rx="4" fill="#0ca30c" stroke="#fcfcfb" stroke-width="1"></rect><rect x="474" y="4" width="16" height="16" rx="4" fill="#fab219" stroke="#fcfcfb" stroke-width="1"></rect><rect x="492" y="4" width="16" height="16" rx="4" fill="#0ca30c" stroke="#fcfcfb" stroke-width="1"></rect><rect x="510" y="4" width="16" height="16" rx="4" fill="#0ca30c" stroke="#fcfcfb" stroke-width="1"></rect><rect x="528" y="4" width="16" height="16" rx="4" fill="#0ca30c" stroke="#fcfcfb" stroke-width="1"></rect><rect x="546" y="4" width="16" height="16" rx="4" fill="#0ca30c" stroke="#fcfcfb" stroke-width="1"></rect><rect x="564" y="4" width="16" height="16" rx="4" fill="#0ca30c" stroke="#fcfcfb" stroke-width="1"></rect><text x="592" y="16" font-size="11" font-weight="600" fill="#0b0b0b">21 of 24</text><text x="0" y="46" font-size="11" font-weight="600" fill="#0b0b0b">Indexes removed</text><text x="0" y="59" font-size="9" fill="#898781">Task 16 · same harness, one variable</text><rect x="150" y="38" width="16" height="16" rx="4" fill="#d03b3b" stroke="#fcfcfb" stroke-width="1"></rect><rect x="168" y="38" width="16" height="16" rx="4" fill="#d03b3b" stroke="#fcfcfb" stroke-width="1"></rect><rect x="186" y="38" width="16" height="16" rx="4" fill="#d03b3b" stroke="#fcfcfb" stroke-width="1"></rect><rect x="204" y="38" width="16" height="16" rx="4" fill="#d03b3b" stroke="#fcfcfb" stroke-width="1"></rect><rect x="222" y="38" width="16" height="16" rx="4" fill="#d03b3b" stroke="#fcfcfb" stroke-width="1"></rect><rect x="240" y="38" width="16" height="16" rx="4" fill="#d03b3b" stroke="#fcfcfb" stroke-width="1"></rect><rect x="258" y="38" width="16" height="16" rx="4" fill="#d03b3b" stroke="#fcfcfb" stroke-width="1"></rect><rect x="276" y="38" width="16" height="16" rx="4" fill="#d03b3b" stroke="#fcfcfb" stroke-width="1"></rect><rect x="294" y="38" width="16" height="16" rx="4" fill="#d03b3b" stroke="#fcfcfb" stroke-width="1"></rect><rect x="312" y="38" width="16" height="16" rx="4" fill="#d03b3b" stroke="#fcfcfb" stroke-width="1"></rect><rect x="330" y="38" width="16" height="16" rx="4" fill="#d03b3b" stroke="#fcfcfb" stroke-width="1"></rect><rect x="348" y="38" width="16" height="16" rx="4" fill="#d03b3b" stroke="#fcfcfb" stroke-width="1"></rect><rect x="366" y="38" width="16" height="16" rx="4" fill="#d03b3b" stroke="#fcfcfb" stroke-width="1"></rect><rect x="384" y="38" width="16" height="16" rx="4" fill="#d03b3b" stroke="#fcfcfb" stroke-width="1"></rect><rect x="402" y="38" width="16" height="16" rx="4" fill="#d03b3b" stroke="#fcfcfb" stroke-width="1"></rect><rect x="420" y="38" width="16" height="16" rx="4" fill="#d03b3b" stroke="#fcfcfb" stroke-width="1"></rect><rect x="438" y="38" width="16" height="16" rx="4" fill="#d03b3b" stroke="#fcfcfb" stroke-width="1"></rect><rect x="456" y="38" width="16" height="16" rx="4" fill="#d03b3b" stroke="#fcfcfb" stroke-width="1"></rect><rect x="474" y="38" width="16" height="16" rx="4" fill="#d03b3b" stroke="#fcfcfb" stroke-width="1"></rect><rect x="492" y="38" width="16" height="16" rx="4" fill="#d03b3b" stroke="#fcfcfb" stroke-width="1"></rect><rect x="510" y="38" width="16" height="16" rx="4" fill="#d03b3b" stroke="#fcfcfb" stroke-width="1"></rect><rect x="528" y="38" width="16" height="16" rx="4" fill="#d03b3b" stroke="#fcfcfb" stroke-width="1"></rect><rect x="546" y="38" width="16" height="16" rx="4" fill="#d03b3b" stroke="#fcfcfb" stroke-width="1"></rect><rect x="564" y="38" width="16" height="16" rx="4" fill="#d03b3b" stroke="#fcfcfb" stroke-width="1"></rect><text x="592" y="50" font-size="11" font-weight="600" fill="#0b0b0b">0 of 24</text><text x="0" y="80" font-size="11" font-weight="600" fill="#0b0b0b">Removed + one rule</text><text x="0" y="93" font-size="9" fill="#898781">Task 19 · one CLAUDE.md line</text><rect x="150" y="72" width="16" height="16" rx="4" fill="#0ca30c" stroke="#fcfcfb" stroke-width="1"></rect><rect x="168" y="72" width="16" height="16" rx="4" fill="#0ca30c" stroke="#fcfcfb" stroke-width="1"></rect><rect x="186" y="72" width="16" height="16" rx="4" fill="#0ca30c" stroke="#fcfcfb" stroke-width="1"></rect><rect x="204" y="72" width="16" height="16" rx="4" fill="#0ca30c" stroke="#fcfcfb" stroke-width="1"></rect><rect x="222" y="72" width="16" height="16" rx="4" fill="#0ca30c" stroke="#fcfcfb" stroke-width="1"></rect><rect x="240" y="72" width="16" height="16" rx="4" fill="#0ca30c" stroke="#fcfcfb" stroke-width="1"></rect><rect x="258" y="72" width="16" height="16" rx="4" fill="#0ca30c" stroke="#fcfcfb" stroke-width="1"></rect><rect x="276" y="72" width="16" height="16" rx="4" fill="#0ca30c" stroke="#fcfcfb" stroke-width="1"></rect><rect x="294" y="72" width="16" height="16" rx="4" fill="#0ca30c" stroke="#fcfcfb" stroke-width="1"></rect><rect x="312" y="72" width="16" height="16" rx="4" fill="#0ca30c" stroke="#fcfcfb" stroke-width="1"></rect><rect x="330" y="72" width="16" height="16" rx="4" fill="#d03b3b" stroke="#fcfcfb" stroke-width="1"></rect><rect x="348" y="72" width="16" height="16" rx="4" fill="#0ca30c" stroke="#fcfcfb" stroke-width="1"></rect><text x="592" y="84" font-size="11" font-weight="600" fill="#0b0b0b">11 of 12</text><text x="0" y="114" font-size="11" font-weight="600" fill="#0b0b0b">claude-opus-4-8</text><text x="0" y="127" font-size="9" fill="#898781">Task 18 · removed, no rule</text><rect x="150" y="106" width="16" height="16" rx="4" fill="#d03b3b" stroke="#fcfcfb" stroke-width="1"></rect><rect x="168" y="106" width="16" height="16" rx="4" fill="#0ca30c" stroke="#fcfcfb" stroke-width="1"></rect><rect x="186" y="106" width="16" height="16" rx="4" fill="#d03b3b" stroke="#fcfcfb" stroke-width="1"></rect><rect x="204" y="106" width="16" height="16" rx="4" fill="#0ca30c" stroke="#fcfcfb" stroke-width="1"></rect><rect x="222" y="106" width="16" height="16" rx="4" fill="#d03b3b" stroke="#fcfcfb" stroke-width="1"></rect><rect x="240" y="106" width="16" height="16" rx="4" fill="#0ca30c" stroke="#fcfcfb" stroke-width="1"></rect><rect x="258" y="106" width="16" height="16" rx="4" fill="#d03b3b" stroke="#fcfcfb" stroke-width="1"></rect><rect x="276" y="106" width="16" height="16" rx="4" fill="#0ca30c" stroke="#fcfcfb" stroke-width="1"></rect><rect x="294" y="106" width="16" height="16" rx="4" fill="#d03b3b" stroke="#fcfcfb" stroke-width="1"></rect><rect x="312" y="106" width="16" height="16" rx="4" fill="#d03b3b" stroke="#fcfcfb" stroke-width="1"></rect><rect x="330" y="106" width="16" height="16" rx="4" fill="#d03b3b" stroke="#fcfcfb" stroke-width="1"></rect><rect x="348" y="106" width="16" height="16" rx="4" fill="#d03b3b" stroke="#fcfcfb" stroke-width="1"></rect><text x="592" y="118" font-size="11" font-weight="600" fill="#0b0b0b">4 of 12</text><text x="0" y="148" font-size="11" font-weight="600" fill="#0b0b0b">gemini-3.6-flash</text><text x="0" y="161" font-size="9" fill="#898781">Task 18 · removed, no rule</text><rect x="150" y="140" width="16" height="16" rx="4" fill="#0ca30c" stroke="#fcfcfb" stroke-width="1"></rect><rect x="168" y="140" width="16" height="16" rx="4" fill="#0ca30c" stroke="#fcfcfb" stroke-width="1"></rect><rect x="186" y="140" width="16" height="16" rx="4" fill="#0ca30c" stroke="#fcfcfb" stroke-width="1"></rect><rect x="204" y="140" width="16" height="16" rx="4" fill="#0ca30c" stroke="#fcfcfb" stroke-width="1"></rect><rect x="222" y="140" width="16" height="16" rx="4" fill="#0ca30c" stroke="#fcfcfb" stroke-width="1"></rect><rect x="240" y="140" width="16" height="16" rx="4" fill="#0ca30c" stroke="#fcfcfb" stroke-width="1"></rect><rect x="258" y="140" width="16" height="16" rx="4" fill="#0ca30c" stroke="#fcfcfb" stroke-width="1"></rect><rect x="276" y="140" width="16" height="16" rx="4" fill="#0ca30c" stroke="#fcfcfb" stroke-width="1"></rect><rect x="294" y="140" width="16" height="16" rx="4" fill="#0ca30c" stroke="#fcfcfb" stroke-width="1"></rect><rect x="312" y="140" width="16" height="16" rx="4" fill="#fab219" stroke="#fcfcfb" stroke-width="1"></rect><rect x="330" y="140" width="16" height="16" rx="4" fill="#fab219" stroke="#fcfcfb" stroke-width="1"></rect><rect x="348" y="140" width="16" height="16" rx="4" fill="#fab219" stroke="#fcfcfb" stroke-width="1"></rect><text x="592" y="152" font-size="11" font-weight="600" fill="#0b0b0b">9 of 12</text><text x="0" y="182" font-size="11" font-weight="600" fill="#0b0b0b">Codex</text><text x="0" y="195" font-size="9" fill="#898781">Task 18 · removed, no rule</text><rect x="150" y="174" width="16" height="16" rx="4" fill="#0ca30c" stroke="#fcfcfb" stroke-width="1"></rect><rect x="168" y="174" width="16" height="16" rx="4" fill="#0ca30c" stroke="#fcfcfb" stroke-width="1"></rect><rect x="186" y="174" width="16" height="16" rx="4" fill="#fab219" stroke="#fcfcfb" stroke-width="1"></rect><rect x="204" y="174" width="16" height="16" rx="4" fill="#0ca30c" stroke="#fcfcfb" stroke-width="1"></rect><rect x="222" y="174" width="16" height="16" rx="4" fill="#d03b3b" stroke="#fcfcfb" stroke-width="1"></rect><rect x="240" y="174" width="16" height="16" rx="4" fill="#0ca30c" stroke="#fcfcfb" stroke-width="1"></rect><rect x="258" y="174" width="16" height="16" rx="4" fill="#fab219" stroke="#fcfcfb" stroke-width="1"></rect><rect x="276" y="174" width="16" height="16" rx="4" fill="#0ca30c" stroke="#fcfcfb" stroke-width="1"></rect><rect x="294" y="174" width="16" height="16" rx="4" fill="#0ca30c" stroke="#fcfcfb" stroke-width="1"></rect><rect x="312" y="174" width="16" height="16" rx="4" fill="#0ca30c" stroke="#fcfcfb" stroke-width="1"></rect><rect x="330" y="174" width="16" height="16" rx="4" fill="#fab219" stroke="#fcfcfb" stroke-width="1"></rect><rect x="348" y="174" width="16" height="16" rx="4" fill="#0ca30c" stroke="#fcfcfb" stroke-width="1"></rect><text x="592" y="186" font-size="11" font-weight="600" fill="#0b0b0b">8 of 12</text><text x="0" y="216" font-size="11" font-weight="600" fill="#0b0b0b">Outside the repo</text><text x="0" y="229" font-size="9" fill="#898781">Task 17 · indexed, contamination check</text><rect x="150" y="208" width="16" height="16" rx="4" fill="#0ca30c" stroke="#fcfcfb" stroke-width="1"></rect><rect x="168" y="208" width="16" height="16" rx="4" fill="#0ca30c" stroke="#fcfcfb" stroke-width="1"></rect><rect x="186" y="208" width="16" height="16" rx="4" fill="#fab219" stroke="#fcfcfb" stroke-width="1"></rect><rect x="204" y="208" width="16" height="16" rx="4" fill="#0ca30c" stroke="#fcfcfb" stroke-width="1"></rect><rect x="222" y="208" width="16" height="16" rx="4" fill="#0ca30c" stroke="#fcfcfb" stroke-width="1"></rect><rect x="240" y="208" width="16" height="16" rx="4" fill="#0ca30c" stroke="#fcfcfb" stroke-width="1"></rect><rect x="258" y="208" width="16" height="16" rx="4" fill="#0ca30c" stroke="#fcfcfb" stroke-width="1"></rect><rect x="276" y="208" width="16" height="16" rx="4" fill="#0ca30c" stroke="#fcfcfb" stroke-width="1"></rect><text x="592" y="220" font-size="11" font-weight="600" fill="#0b0b0b">7 of 8</text></svg></svg>