<svg xmlns="http://www.w3.org/2000/svg" viewBox="0 0 800 494" width="800" height="494" font-family="system-ui, -apple-system, 'Segoe UI', sans-serif"><rect x="0" y="0" width="800" height="494" fill="#fcfcfb"></rect><text x="20" y="38" font-size="16" font-weight="600" fill="#0b0b0b">Index counts by trial — cross-model replication</text><text x="20" y="56" font-size="12" fill="#52514e">Every dot is one trial, n=5 per cell. Explicit = total minus CREATE UNIQUE INDEX; in-scope = explicit, restricted to the</text><text x="20" y="72" font-size="12" fill="#52514e">two graded tables. gemini-3.6-flash is a fast tier beside two frontier-tier tools — a tier gap, not evidence Gemini</text><text x="20" y="88" font-size="12" fill="#52514e">reasons worse about indexes.</text><g transform="translate(20, 102)"><circle cx="5" cy="-4" r="5" fill="#2a78d6"></circle><text x="15" y="0" font-size="11" fill="#52514e">Arm 1 (no “production scale” sentence)</text><circle cx="256.79999999999995" cy="-4" r="5" fill="#eb6834"></circle><text x="266.79999999999995" y="0" font-size="11" fill="#52514e">Arm 2 (+ “production scale” sentence)</text></g><svg class="plot-d6a7b5" fill="currentColor" font-family="system-ui, sans-serif" font-size="10" text-anchor="middle" width="760" height="340" viewBox="0 0 760 340" style="background: none; color: rgb(11, 11, 11); font-family: system-ui, -apple-system, &quot;Segoe UI&quot;, sans-serif;" x="20" y="134"><style>:where(.plot-d6a7b5) {
  --plot-background: white;
  display: block;
  height: auto;
  height: intrinsic;
  max-width: 100%;
}
:where(.plot-d6a7b5 text),
:where(.plot-d6a7b5 tspan) {
  white-space: pre;
}</style><g aria-label="fy-axis tick label" transform="translate(9,0)"><g text-anchor="start" transform="translate(451,0)"><text y="0.32em" transform="translate(249,95.5)">Explicit</text></g><g text-anchor="start" transform="translate(451,145)"><text y="0.32em" transform="translate(249,95.5)">In-scope</text></g></g><g aria-label="fx-axis tick label" transform="translate(0,-9)"><g transform="translate(1,0)"><text transform="translate(147.5,30)">claude-opus-4-8</text></g><g transform="translate(226,0)"><text transform="translate(147.5,30)">gemini-3.6-flash (fast tier)</text></g><g transform="translate(451,0)"><text transform="translate(147.5,30)">Codex (codex-cli, self-reported GPT-5, unverified)</text></g></g><g aria-label="y-axis tick" aria-hidden="true"><g fill="none" stroke="currentColor" transform="translate(1,0)"><path transform="translate(46,161)" d="M0,0L-6,0"></path><path transform="translate(46,114.2142857142857)" d="M0,0L-6,0"></path><path transform="translate(46,67.42857142857143)" d="M0,0L-6,0"></path></g><g fill="none" stroke="currentColor" transform="translate(1,145)"><path transform="translate(46,161)" d="M0,0L-6,0"></path><path transform="translate(46,114.2142857142857)" d="M0,0L-6,0"></path><path transform="translate(46,67.42857142857143)" d="M0,0L-6,0"></path></g></g><g aria-label="y-axis tick label" transform="translate(-9,0)"><g text-anchor="end" font-variant="tabular-nums" transform="translate(1,0)"><text y="0.32em" transform="translate(46,161)">0</text><text y="0.32em" transform="translate(46,114.2142857142857)">5</text><text y="0.32em" transform="translate(46,67.42857142857143)">10</text></g><g text-anchor="end" font-variant="tabular-nums" transform="translate(1,145)"><text y="0.32em" transform="translate(46,161)">0</text><text y="0.32em" transform="translate(46,114.2142857142857)">5</text><text y="0.32em" transform="translate(46,67.42857142857143)">10</text></g></g><g aria-label="y-axis label" text-anchor="start" transform="translate(-43,-27)"><text y="0.71em" transform="translate(47,30)">↑ index count</text></g><g aria-label="x-axis tick" aria-hidden="true"><g fill="none" stroke="currentColor" transform="translate(1,145)"><path transform="translate(68,161)" d="M0,0L0,6"></path><path transform="translate(108,161)" d="M0,0L0,6"></path><path transform="translate(148,161)" d="M0,0L0,6"></path><path transform="translate(188,161)" d="M0,0L0,6"></path><path transform="translate(228,161)" d="M0,0L0,6"></path></g><g fill="none" stroke="currentColor" transform="translate(226,145)"><path transform="translate(68,161)" d="M0,0L0,6"></path><path transform="translate(108,161)" d="M0,0L0,6"></path><path transform="translate(148,161)" d="M0,0L0,6"></path><path transform="translate(188,161)" d="M0,0L0,6"></path><path transform="translate(228,161)" d="M0,0L0,6"></path></g><g fill="none" stroke="currentColor" transform="translate(451,145)"><path transform="translate(68,161)" d="M0,0L0,6"></path><path transform="translate(108,161)" d="M0,0L0,6"></path><path transform="translate(148,161)" d="M0,0L0,6"></path><path transform="translate(188,161)" d="M0,0L0,6"></path><path transform="translate(228,161)" d="M0,0L0,6"></path></g></g><g aria-label="x-axis tick label" transform="translate(0,9)"><g transform="translate(1,145)"><text y="0.71em" transform="translate(68,161)">1</text><text y="0.71em" transform="translate(108,161)">2</text><text y="0.71em" transform="translate(148,161)">3</text><text y="0.71em" transform="translate(188,161)">4</text><text y="0.71em" transform="translate(228,161)">5</text></g><g transform="translate(226,145)"><text y="0.71em" transform="translate(68,161)">1</text><text y="0.71em" transform="translate(108,161)">2</text><text y="0.71em" transform="translate(148,161)">3</text><text y="0.71em" transform="translate(188,161)">4</text><text y="0.71em" transform="translate(228,161)">5</text></g><g transform="translate(451,145)"><text y="0.71em" transform="translate(68,161)">1</text><text y="0.71em" transform="translate(108,161)">2</text><text y="0.71em" transform="translate(148,161)">3</text><text y="0.71em" transform="translate(188,161)">4</text><text y="0.71em" transform="translate(228,161)">5</text></g></g><g aria-label="x-axis label" transform="translate(0,31)"><text transform="translate(373.5,306)">trial (run order within arm)</text></g><g aria-label="y-grid" aria-hidden="true"><g stroke="#e1e0d9" stroke-opacity="0.1" transform="translate(1,0)"><line x1="46" x2="249" y1="161" y2="161"></line><line x1="46" x2="249" y1="114.2142857142857" y2="114.2142857142857"></line><line x1="46" x2="249" y1="67.42857142857143" y2="67.42857142857143"></line></g><g stroke="#e1e0d9" stroke-opacity="0.1" transform="translate(1,145)"><line x1="46" x2="249" y1="161" y2="161"></line><line x1="46" x2="249" y1="114.2142857142857" y2="114.2142857142857"></line><line x1="46" x2="249" y1="67.42857142857143" y2="67.42857142857143"></line></g><g stroke="#e1e0d9" stroke-opacity="0.1" transform="translate(226,0)"><line x1="46" x2="249" y1="161" y2="161"></line><line x1="46" x2="249" y1="114.2142857142857" y2="114.2142857142857"></line><line x1="46" x2="249" y1="67.42857142857143" y2="67.42857142857143"></line></g><g stroke="#e1e0d9" stroke-opacity="0.1" transform="translate(226,145)"><line x1="46" x2="249" y1="161" y2="161"></line><line x1="46" x2="249" y1="114.2142857142857" y2="114.2142857142857"></line><line x1="46" x2="249" y1="67.42857142857143" y2="67.42857142857143"></line></g><g stroke="#e1e0d9" stroke-opacity="0.1" transform="translate(451,0)"><line x1="46" x2="249" y1="161" y2="161"></line><line x1="46" x2="249" y1="114.2142857142857" y2="114.2142857142857"></line><line x1="46" x2="249" y1="67.42857142857143" y2="67.42857142857143"></line></g><g stroke="#e1e0d9" stroke-opacity="0.1" transform="translate(451,145)"><line x1="46" x2="249" y1="161" y2="161"></line><line x1="46" x2="249" y1="114.2142857142857" y2="114.2142857142857"></line><line x1="46" x2="249" y1="67.42857142857143" y2="67.42857142857143"></line></g></g><g aria-label="frame"><rect fill="none" stroke="#c3c2b7" x="46" y="30" width="203" height="131" transform="translate(1,0)"></rect><rect fill="none" stroke="#c3c2b7" x="46" y="30" width="203" height="131" transform="translate(1,145)"></rect><rect fill="none" stroke="#c3c2b7" x="46" y="30" width="203" height="131" transform="translate(226,0)"></rect><rect fill="none" stroke="#c3c2b7" x="46" y="30" width="203" height="131" transform="translate(226,145)"></rect><rect fill="none" stroke="#c3c2b7" x="46" y="30" width="203" height="131" transform="translate(451,0)"></rect><rect fill="none" stroke="#c3c2b7" x="46" y="30" width="203" height="131" transform="translate(451,145)"></rect></g><g aria-label="dot"><g stroke="#fcfcfb" stroke-width="2" transform="translate(1,0)"><circle cx="68" cy="86.14285714285714" r="5" fill="#2a78d6"><title>claude/arm1-trial1
Explicit: 8
Arm 1 (no “production scale” sentence)</title></circle><circle cx="108" cy="67.42857142857143" r="5" fill="#2a78d6"><title>claude/arm1-trial2
Explicit: 10
Arm 1 (no “production scale” sentence)</title></circle><circle cx="148" cy="48.71428571428572" r="5" fill="#2a78d6"><title>claude/arm1-trial3
Explicit: 12
Arm 1 (no “production scale” sentence)</title></circle><circle cx="188" cy="48.71428571428572" r="5" fill="#2a78d6"><title>claude/arm1-trial4
Explicit: 12
Arm 1 (no “production scale” sentence)</title></circle><circle cx="228" cy="67.42857142857143" r="5" fill="#2a78d6"><title>claude/arm1-trial5
Explicit: 10
Arm 1 (no “production scale” sentence)</title></circle><circle cx="68" cy="95.5" r="5" fill="#eb6834"><title>claude/arm2-trial1
Explicit: 7
Arm 2 (+ “production scale” sentence)</title></circle><circle cx="108" cy="67.42857142857143" r="5" fill="#eb6834"><title>claude/arm2-trial2
Explicit: 10
Arm 2 (+ “production scale” sentence)</title></circle><circle cx="148" cy="76.78571428571428" r="5" fill="#eb6834"><title>claude/arm2-trial3
Explicit: 9
Arm 2 (+ “production scale” sentence)</title></circle><circle cx="228" cy="67.42857142857143" r="5" fill="#eb6834"><title>claude/arm2-trial5
Explicit: 10
Arm 2 (+ “production scale” sentence)</title></circle></g><g stroke="#fcfcfb" stroke-width="2" transform="translate(1,145)"><circle cx="68" cy="132.92857142857142" r="5" fill="#2a78d6"><title>claude/arm1-trial1
In-scope: 3
Arm 1 (no “production scale” sentence)</title></circle><circle cx="108" cy="123.57142857142857" r="5" fill="#2a78d6"><title>claude/arm1-trial2
In-scope: 4
Arm 1 (no “production scale” sentence)</title></circle><circle cx="148" cy="104.85714285714286" r="5" fill="#2a78d6"><title>claude/arm1-trial3
In-scope: 6
Arm 1 (no “production scale” sentence)</title></circle><circle cx="188" cy="95.5" r="5" fill="#2a78d6"><title>claude/arm1-trial4
In-scope: 7
Arm 1 (no “production scale” sentence)</title></circle><circle cx="228" cy="114.2142857142857" r="5" fill="#2a78d6"><title>claude/arm1-trial5
In-scope: 5
Arm 1 (no “production scale” sentence)</title></circle><circle cx="68" cy="142.28571428571428" r="5" fill="#eb6834"><title>claude/arm2-trial1
In-scope: 2
Arm 2 (+ “production scale” sentence)</title></circle><circle cx="108" cy="114.2142857142857" r="5" fill="#eb6834"><title>claude/arm2-trial2
In-scope: 5
Arm 2 (+ “production scale” sentence)</title></circle><circle cx="148" cy="123.57142857142857" r="5" fill="#eb6834"><title>claude/arm2-trial3
In-scope: 4
Arm 2 (+ “production scale” sentence)</title></circle><circle cx="228" cy="114.2142857142857" r="5" fill="#eb6834"><title>claude/arm2-trial5
In-scope: 5
Arm 2 (+ “production scale” sentence)</title></circle></g><g stroke="#fcfcfb" stroke-width="2" transform="translate(226,0)"><circle cx="68" cy="161" r="5" fill="#2a78d6"><title>gemini/arm1-trial1
Explicit: 0
Arm 1 (no “production scale” sentence)</title></circle><circle cx="108" cy="161" r="5" fill="#2a78d6"><title>gemini/arm1-trial2
Explicit: 0
Arm 1 (no “production scale” sentence)</title></circle><circle cx="148" cy="161" r="5" fill="#2a78d6"><title>gemini/arm1-trial3
Explicit: 0
Arm 1 (no “production scale” sentence)</title></circle><circle cx="188" cy="161" r="5" fill="#2a78d6"><title>gemini/arm1-trial4
Explicit: 0
Arm 1 (no “production scale” sentence)</title></circle><circle cx="228" cy="161" r="5" fill="#2a78d6"><title>gemini/arm1-trial5
Explicit: 0
Arm 1 (no “production scale” sentence)</title></circle><circle cx="68" cy="76.78571428571428" r="5" fill="#eb6834"><title>gemini/arm2-trial1
Explicit: 9
Arm 2 (+ “production scale” sentence)</title></circle><circle cx="108" cy="58.07142857142857" r="5" fill="#eb6834"><title>gemini/arm2-trial2
Explicit: 11
Arm 2 (+ “production scale” sentence)</title></circle><circle cx="148" cy="58.07142857142857" r="5" fill="#eb6834"><title>gemini/arm2-trial3
Explicit: 11
Arm 2 (+ “production scale” sentence)</title></circle><circle cx="188" cy="58.07142857142857" r="5" fill="#eb6834"><title>gemini/arm2-trial4
Explicit: 11
Arm 2 (+ “production scale” sentence)</title></circle><circle cx="228" cy="67.42857142857143" r="5" fill="#eb6834"><title>gemini/arm2-trial5
Explicit: 10
Arm 2 (+ “production scale” sentence)</title></circle></g><g stroke="#fcfcfb" stroke-width="2" transform="translate(226,145)"><circle cx="68" cy="161" r="5" fill="#2a78d6"><title>gemini/arm1-trial1
In-scope: 0
Arm 1 (no “production scale” sentence)</title></circle><circle cx="108" cy="161" r="5" fill="#2a78d6"><title>gemini/arm1-trial2
In-scope: 0
Arm 1 (no “production scale” sentence)</title></circle><circle cx="148" cy="161" r="5" fill="#2a78d6"><title>gemini/arm1-trial3
In-scope: 0
Arm 1 (no “production scale” sentence)</title></circle><circle cx="188" cy="161" r="5" fill="#2a78d6"><title>gemini/arm1-trial4
In-scope: 0
Arm 1 (no “production scale” sentence)</title></circle><circle cx="228" cy="161" r="5" fill="#2a78d6"><title>gemini/arm1-trial5
In-scope: 0
Arm 1 (no “production scale” sentence)</title></circle><circle cx="68" cy="123.57142857142857" r="5" fill="#eb6834"><title>gemini/arm2-trial1
In-scope: 4
Arm 2 (+ “production scale” sentence)</title></circle><circle cx="108" cy="104.85714285714286" r="5" fill="#eb6834"><title>gemini/arm2-trial2
In-scope: 6
Arm 2 (+ “production scale” sentence)</title></circle><circle cx="148" cy="104.85714285714286" r="5" fill="#eb6834"><title>gemini/arm2-trial3
In-scope: 6
Arm 2 (+ “production scale” sentence)</title></circle><circle cx="188" cy="104.85714285714286" r="5" fill="#eb6834"><title>gemini/arm2-trial4
In-scope: 6
Arm 2 (+ “production scale” sentence)</title></circle><circle cx="228" cy="114.2142857142857" r="5" fill="#eb6834"><title>gemini/arm2-trial5
In-scope: 5
Arm 2 (+ “production scale” sentence)</title></circle></g><g stroke="#fcfcfb" stroke-width="2" transform="translate(451,0)"><circle cx="68" cy="132.92857142857142" r="5" fill="#2a78d6"><title>codex/arm1-trial1
Explicit: 3
Arm 1 (no “production scale” sentence)</title></circle><circle cx="108" cy="132.92857142857142" r="5" fill="#2a78d6"><title>codex/arm1-trial2
Explicit: 3
Arm 1 (no “production scale” sentence)</title></circle><circle cx="148" cy="95.5" r="5" fill="#2a78d6"><title>codex/arm1-trial3
Explicit: 7
Arm 1 (no “production scale” sentence)</title></circle><circle cx="188" cy="76.78571428571428" r="5" fill="#2a78d6"><title>codex/arm1-trial4
Explicit: 9
Arm 1 (no “production scale” sentence)</title></circle><circle cx="228" cy="76.78571428571428" r="5" fill="#2a78d6"><title>codex/arm1-trial5
Explicit: 9
Arm 1 (no “production scale” sentence)</title></circle><circle cx="68" cy="58.07142857142857" r="5" fill="#eb6834"><title>codex/arm2-trial1
Explicit: 11
Arm 2 (+ “production scale” sentence)</title></circle><circle cx="108" cy="76.78571428571428" r="5" fill="#eb6834"><title>codex/arm2-trial2
Explicit: 9
Arm 2 (+ “production scale” sentence)</title></circle><circle cx="148" cy="48.71428571428572" r="5" fill="#eb6834"><title>codex/arm2-trial3
Explicit: 12
Arm 2 (+ “production scale” sentence)</title></circle><circle cx="188" cy="48.71428571428572" r="5" fill="#eb6834"><title>codex/arm2-trial4
Explicit: 12
Arm 2 (+ “production scale” sentence)</title></circle><circle cx="228" cy="58.07142857142857" r="5" fill="#eb6834"><title>codex/arm2-trial5
Explicit: 11
Arm 2 (+ “production scale” sentence)</title></circle></g><g stroke="#fcfcfb" stroke-width="2" transform="translate(451,145)"><circle cx="68" cy="132.92857142857142" r="5" fill="#2a78d6"><title>codex/arm1-trial1
In-scope: 3
Arm 1 (no “production scale” sentence)</title></circle><circle cx="108" cy="132.92857142857142" r="5" fill="#2a78d6"><title>codex/arm1-trial2
In-scope: 3
Arm 1 (no “production scale” sentence)</title></circle><circle cx="148" cy="123.57142857142857" r="5" fill="#2a78d6"><title>codex/arm1-trial3
In-scope: 4
Arm 1 (no “production scale” sentence)</title></circle><circle cx="188" cy="123.57142857142857" r="5" fill="#2a78d6"><title>codex/arm1-trial4
In-scope: 4
Arm 1 (no “production scale” sentence)</title></circle><circle cx="228" cy="123.57142857142857" r="5" fill="#2a78d6"><title>codex/arm1-trial5
In-scope: 4
Arm 1 (no “production scale” sentence)</title></circle><circle cx="68" cy="104.85714285714286" r="5" fill="#eb6834"><title>codex/arm2-trial1
In-scope: 6
Arm 2 (+ “production scale” sentence)</title></circle><circle cx="108" cy="123.57142857142857" r="5" fill="#eb6834"><title>codex/arm2-trial2
In-scope: 4
Arm 2 (+ “production scale” sentence)</title></circle><circle cx="148" cy="95.5" r="5" fill="#eb6834"><title>codex/arm2-trial3
In-scope: 7
Arm 2 (+ “production scale” sentence)</title></circle><circle cx="188" cy="104.85714285714286" r="5" fill="#eb6834"><title>codex/arm2-trial4
In-scope: 6
Arm 2 (+ “production scale” sentence)</title></circle><circle cx="228" cy="104.85714285714286" r="5" fill="#eb6834"><title>codex/arm2-trial5
In-scope: 6
Arm 2 (+ “production scale” sentence)</title></circle></g></g><g aria-label="dot"><g fill="none" stroke="#898781" stroke-width="2" stroke-dasharray="2,2" transform="translate(1,0)"><circle cx="188" cy="161" r="6"></circle></g><g fill="none" stroke="#898781" stroke-width="2" stroke-dasharray="2,2" transform="translate(1,145)"><circle cx="188" cy="161" r="6"></circle></g></g><g aria-label="text" transform="translate(0,14)"><g fill="#898781" font-size="9" transform="translate(1,0)"><text y="0.32em" transform="translate(188,161)">ungradeable</text></g><g fill="#898781" font-size="9" transform="translate(1,145)"><text y="0.32em" transform="translate(188,161)">ungradeable</text></g></g><g aria-label="text"><g fill="#fab219" font-size="10" font-weight="600" transform="translate(226,0)"><text y="0.32em" transform="translate(148,30)">fast tier ↑</text></g></g></svg></svg>