<svg xmlns="http://www.w3.org/2000/svg" viewBox="0 0 874 472" width="874" height="472" font-family="system-ui, -apple-system, 'Segoe UI', sans-serif"><rect x="0" y="0" width="874" height="472" fill="#fcfcfb"></rect><text x="20" y="38" font-size="16" font-weight="600" fill="#0b0b0b">Verdict grid — pilot (10 trials, one model)</text><text x="20" y="56" font-size="12" fill="#52514e">batch=pilot · claude-opus-5[1m] · arm 1 run entirely before arm 2 (not interleaved) · shown separately, not comparable to the chart</text><text x="20" y="72" font-size="12" fill="#52514e">above</text><g transform="translate(20, 86)"><rect x="0" y="-10" width="12" height="12" rx="3" fill="#0ca30c"></rect><text x="17" y="0" font-size="11" fill="#52514e">Match</text><rect x="65" y="-10" width="12" height="12" rx="3" fill="#fab219"></rect><text x="82" y="0" font-size="11" fill="#52514e">Partial</text><rect x="142" y="-10" width="12" height="12" rx="3" fill="#fab219"></rect><rect x="142" y="-10" width="12" height="12" rx="3" fill="url(#hatch-light)"></rect><text x="159" y="0" font-size="11" fill="#52514e">Wrong order (hatched)</text><rect x="303" y="-10" width="12" height="12" rx="3" fill="#d03b3b"></rect><text x="320" y="0" font-size="11" fill="#52514e">Missing</text></g><svg width="834" height="334" overflow="visible" x="20" y="118"><defs><pattern id="hatch-light" patternUnits="userSpaceOnUse" width="6" height="6" patternTransform="rotate(45)"><rect width="6" height="6" fill="none"></rect><line x1="0" y1="0" x2="0" y2="6" stroke="#8a620e" stroke-width="2"></line></pattern><pattern id="hatch-gray-light" patternUnits="userSpaceOnUse" width="6" height="6" patternTransform="rotate(45)"><rect width="6" height="6" fill="none"></rect><line x1="0" y1="0" x2="0" y2="6" stroke="#898781" stroke-width="2"></line></pattern></defs><text x="380" y="14" font-size="11" font-weight="600" text-anchor="middle" fill="#52514e">InventoryDaily (store_id, snapshot_date)</text><text x="682" y="14" font-size="11" font-weight="600" text-anchor="middle" fill="#52514e">Adjustments (store_id, product_id)</text><text x="0" y="38" font-size="12" font-weight="600" fill="#0b0b0b">claude-opus-5[1m] — pilot batch</text><text x="0" y="61" font-size="11" fill="#52514e">arm 1 · trial 1</text><rect x="230" y="44" width="300" height="26" rx="4" fill="#fab219"></rect><text x="240" y="61" font-size="11" font-weight="600" fill="#0b0b0b">◐ Partial</text><rect x="532" y="44" width="300" height="26" rx="4" fill="#d03b3b"></rect><text x="542" y="61" font-size="11" font-weight="600" fill="#0b0b0b">✕ Missing</text><text x="0" y="89" font-size="11" fill="#52514e">arm 1 · trial 2</text><rect x="230" y="72" width="300" height="26" rx="4" fill="#0ca30c"></rect><text x="240" y="89" font-size="11" font-weight="600" fill="#0b0b0b">✓ Match</text><rect x="532" y="72" width="300" height="26" rx="4" fill="#fab219"></rect><text x="542" y="89" font-size="11" font-weight="600" fill="#0b0b0b">◐ Partial</text><text x="0" y="117" font-size="11" fill="#52514e">arm 1 · trial 3</text><rect x="230" y="100" width="300" height="26" rx="4" fill="#0ca30c"></rect><text x="240" y="117" font-size="11" font-weight="600" fill="#0b0b0b">✓ Match</text><rect x="532" y="100" width="300" height="26" rx="4" fill="#fab219"></rect><text x="542" y="117" font-size="11" font-weight="600" fill="#0b0b0b">◐ Partial</text><text x="0" y="145" font-size="11" fill="#52514e">arm 1 · trial 4</text><rect x="230" y="128" width="300" height="26" rx="4" fill="#fab219"></rect><text x="240" y="145" font-size="11" font-weight="600" fill="#0b0b0b">◐ Partial</text><rect x="532" y="128" width="300" height="26" rx="4" fill="#d03b3b"></rect><text x="542" y="145" font-size="11" font-weight="600" fill="#0b0b0b">✕ Missing</text><text x="0" y="173" font-size="11" fill="#52514e">arm 1 · trial 5</text><rect x="230" y="156" width="300" height="26" rx="4" fill="#0ca30c"></rect><text x="240" y="173" font-size="11" font-weight="600" fill="#0b0b0b">✓ Match</text><rect x="532" y="156" width="300" height="26" rx="4" fill="#fab219"></rect><text x="542" y="173" font-size="11" font-weight="600" fill="#0b0b0b">◐ Partial</text><text x="0" y="201" font-size="11" fill="#52514e">arm 2 · trial 1</text><rect x="230" y="184" width="300" height="26" rx="4" fill="#fab219"></rect><rect x="230" y="184" width="300" height="26" rx="4" fill="url(#hatch-light)"></rect><text x="240" y="201" font-size="11" font-weight="600" fill="#0b0b0b">◐ Wrong order</text><rect x="532" y="184" width="300" height="26" rx="4" fill="#fab219"></rect><text x="542" y="201" font-size="11" font-weight="600" fill="#0b0b0b">◐ Partial</text><text x="0" y="229" font-size="11" fill="#52514e">arm 2 · trial 2</text><rect x="230" y="212" width="300" height="26" rx="4" fill="#fab219"></rect><text x="240" y="229" font-size="11" font-weight="600" fill="#0b0b0b">◐ Partial</text><rect x="532" y="212" width="300" height="26" rx="4" fill="#fab219"></rect><text x="542" y="229" font-size="11" font-weight="600" fill="#0b0b0b">◐ Partial</text><text x="0" y="257" font-size="11" fill="#52514e">arm 2 · trial 3</text><rect x="230" y="240" width="300" height="26" rx="4" fill="#0ca30c"></rect><text x="240" y="257" font-size="11" font-weight="600" fill="#0b0b0b">✓ Match</text><rect x="532" y="240" width="300" height="26" rx="4" fill="#fab219"></rect><text x="542" y="257" font-size="11" font-weight="600" fill="#0b0b0b">◐ Partial</text><text x="0" y="285" font-size="11" fill="#52514e">arm 2 · trial 4</text><rect x="230" y="268" width="300" height="26" rx="4" fill="#fab219"></rect><text x="240" y="285" font-size="11" font-weight="600" fill="#0b0b0b">◐ Partial</text><rect x="532" y="268" width="300" height="26" rx="4" fill="#fab219"></rect><text x="542" y="285" font-size="11" font-weight="600" fill="#0b0b0b">◐ Partial</text><text x="0" y="313" font-size="11" fill="#52514e">arm 2 · trial 5</text><rect x="230" y="296" width="300" height="26" rx="4" fill="#0ca30c"></rect><text x="240" y="313" font-size="11" font-weight="600" fill="#0b0b0b">✓ Match</text><rect x="532" y="296" width="300" height="26" rx="4" fill="#fab219"></rect><text x="542" y="313" font-size="11" font-weight="600" fill="#0b0b0b">◐ Partial</text></svg></svg>